<?xml version="1.0" encoding="UTF-8" standalone="no"?>
<svg
   xmlns:dc="http://purl.org/dc/elements/1.1/"
   xmlns:cc="http://creativecommons.org/ns#"
   xmlns:rdf="http://www.w3.org/1999/02/22-rdf-syntax-ns#"
   xmlns:svg="http://www.w3.org/2000/svg"
   xmlns="http://www.w3.org/2000/svg"
   xmlns:sodipodi="http://sodipodi.sourceforge.net/DTD/sodipodi-0.dtd"
   xmlns:inkscape="http://www.inkscape.org/namespaces/inkscape"
   version="1.0"
   width="20"
   height="20"
   preserveAspectRatio="xMidYMid meet"
   id="svg6"
   sodipodi:docname="BREAKER.svg"
   inkscape:version="0.92.3 (2405546, 2018-03-11)">
  <metadata
     id="metadata12">
    <rdf:RDF>
      <cc:Work
         rdf:about="">
        <dc:format>image/svg+xml</dc:format>
        <dc:type
           rdf:resource="http://purl.org/dc/dcmitype/StillImage" />
        <dc:title></dc:title>
      </cc:Work>
    </rdf:RDF>
  </metadata>
  <defs
     id="defs10" />
  <sodipodi:namedview
     pagecolor="#ffffff"
     bordercolor="#666666"
     borderopacity="1"
     objecttolerance="10"
     gridtolerance="10"
     guidetolerance="10"
     inkscape:pageopacity="0"
     inkscape:pageshadow="2"
     inkscape:window-width="1858"
     inkscape:window-height="1057"
     id="namedview8"
     showgrid="false"
     inkscape:zoom="11.8"
     inkscape:cx="10"
     inkscape:cy="10"
     inkscape:window-x="-8"
     inkscape:window-y="-8"
     inkscape:window-maximized="1"
     inkscape:current-layer="svg6" />
   <g
     id="closed" class="closed">
    <g
       transform="translate(-715,-271)"
       id="g1200">
      <g
         id="g1190"
         transform="matrix(0,-1,-1,0,1006,1006)">
        <rect
           ry="5.0083561"
           rx="5.0083561"
           y="271"
           x="715"
           height="20"
           width="20"
           id="rect1181" />
        <path
           inkscape:connector-curvature="0"
           d="m 719,279 -4,4 v 2.99219 C 715,288.76682 717.23318,291 720.00781,291 H 723 l 8,-8 z"
           id="path1183" />
        <rect
           id="rect1185"
           width="12"
           height="4"
           x="719"
           y="279" />
      </g>
    </g>
    <g
       transform="translate(-715,-271)"
       id="g1210">
      <g
         transform="matrix(0,-1,-1,0,1006,1006)"
         id="g1208">
        <rect
           id="rect1202"
           width="20"
           height="20"
           x="715"
           y="271"
           rx="5.0083561"
           ry="5.0083561"
            />
        <path
           id="path1204"
           d="m 719,279 -4,4 v 2.99219 C 715,288.76682 717.23318,291 720.00781,291 H 723 l 8,-8 z"
           inkscape:connector-curvature="0" />
        <rect
           y="279"
           x="719"
           height="4"
           width="12"
           id="rect1206"
		   />
      </g>
    </g>
    <rect
       transform="matrix(0,-1,-1,0,0,0)"
       ry="5.0083561"
       rx="5.0083561"
       y="-20"
       x="-20"
       height="20"
       width="20"
       id="rect1212" />
    <rect
       transform="matrix(0,-1,-1,0,0,0)"
       id="rect1216"
       width="12"
       height="4"
       x="-16"
       y="-12" />
  </g>
  <g id="open" class="open">
  <g transform="rotate(89.24874877929688 10.00000762939453,10.000007629394531) " id="g1427">
   <g id="g1200">
    <g transform="matrix(0,-1,-1,0,1006,1006) " id="g1190">
     <rect id="rect1181" width="20" height="20" x="986" y="986" rx="5.008356" ry="5.008356"/>
     <path id="path1183" d="m990,994l-4,4l0,2.99219c0,2.77463 2.23318,5.00781 5.00781,5.00781l2.99219,0l8,-8l-12,-4z"/>
     <rect y="994" x="990" height="4" width="12" id="rect1185"/>
    </g>
   </g>
   <g id="g1210">
    <g id="g1208" transform="matrix(0,-1,-1,0,1006,1006) ">
     <rect ry="5.008356" rx="5.008356" y="986" x="986" height="20" width="20" id="rect1202"/>
     <path d="m990,994l-4,4l0,2.99219c0,2.77463 2.23318,5.00781 5.00781,5.00781l2.99219,0l8,-8l-12,-4z" id="path1204"/>
     <rect id="rect1206" width="12" height="4" x="990" y="994"/>
    </g>
   </g>
   <rect id="rect1212" width="20" height="20" x="-20" y="-20" rx="5.008356" ry="5.008356" transform="matrix(0,-1,-1,0,0,0) "/>
   <rect y="-12" x="-16" height="4" width="12" id="rect1216" transform="matrix(0,-1,-1,0,0,0) "/>
  </g>
 </g>
</svg>
