<?xml version="1.0" encoding="UTF-8"?><svg xmlns="http://www.w3.org/2000/svg">
    <style><![CDATA[.BUSBAR_SECTION {
    stroke: rgb(0,0,0);
    stroke-width: 3;
}

.BREAKER {
    stroke: rgb(0, 0, 255);
    stroke-width: 2;
    fill: rgb(255, 255, 255);
}

.DISCONNECTOR {
    stroke: rgb(0, 0, 0);
    stroke-width: 3
}

.GENERATOR {
    stroke: rgb(0, 0, 255);
    stroke-width: 1;
    fill: rgb(255, 255, 255);
}

.LOAD {
    stroke: rgb(0, 0, 255);
    stroke-width: 1;
    fill: rgb(255, 255, 255);
}

.LOAD_BREAK_SWITCH {
    stroke: rgb(0, 0, 255);
    stroke-width: 1;
    fill: rgb(255, 255, 255);
}

.NODE {
    stroke: rgb(0, 0, 0);
    fill: rgb(0, 0, 0);
    fill-opacity: 1;
}

.CAPACITOR {
    stroke: rgb(0, 0, 255);
    stroke-width: 1;
    fill-opacity: 0;
}

.INDUCTOR {
    stroke: rgb(0, 0, 255);
    stroke-width: 1;
    fill-opacity: 0;
}

.STATIC_VAR_COMPENSATOR {
    stroke: rgb(0, 0, 255);
}

.TWO_WINDINGS_TRANSFORMER {
    stroke: rgb(0, 0, 255);
    fill-opacity: 0;
}

.THREE_WINDINGS_TRANSFORMER {
    stroke: rgb(0, 0, 255);
    fill-opacity: 0;
}

.VSC_CONVERTER_STATION {
    stroke: rgb(0, 0, 255);
    font-size: 7.4314661px;
    line-height: 1.25;
    font-family: sans-serif;
    font-variant-ligatures: normal;
    font-variant-caps: normal;
    font-variant-numeric: normal;
    font-feature-settings: normal;
    text-align: start;
    letter-spacing: 0px;
    word-spacing: 0px;
    writing-mode: lr-tb;
    text-anchor: start;
    stroke-miterlimit: 4;
}

.PHASE_SHIFT_TRANSFORMER {
    stroke: rgb(0, 0, 255);
    stroke-linecap: butt;
    stroke-linejoin: miter;
    stroke-miterlimit: 4;
    stroke-width: 1;
    fill: rgb(255, 255, 255);
}

.wire {
    stroke: rgb(200,0,0);
    stroke-width: 1;
    fill-opacity: 0;
}

.grid {
    stroke: rgb(0,55,0);
    stroke-width: 1;
    stroke-dasharray: 1,10;
}

.component-label {
    fill: black;
    color: black;
    stroke: none;
    fill-opacity: 1;
}

.LINE {
    stroke: rgb(0, 0, 255);
    stroke-width: 1;
    fill-opacity: 0;
}
.ARROW1_LVBN_95_ONE_UP .arrow-up {stroke: black; fill: black; fill-opacity:1; visibility: visible;}.ARROW1_LVBN_95_ONE_UP .arrow-down { stroke-opacity:0; fill-opacity:0; visibility: hidden;}.ARROW1_LVBN_95_ONE_DOWN .arrow-down {stroke: black; fill: black; fill-opacity:1;  visibility: visible;}.ARROW1_LVBN_95_ONE_DOWN .arrow-up { stroke-opacity:0; fill-opacity:0; visibility: hidden;}.ARROW2_LVBN_95_ONE_UP .arrow-up {stroke: blue; fill: blue; fill-opacity:1; visibility: visible;}.ARROW2_LVBN_95_ONE_UP .arrow-down { stroke-opacity:0; fill-opacity:0; visibility: hidden;}.ARROW2_LVBN_95_ONE_DOWN .arrow-down {stroke: blue; fill: blue; fill-opacity:1;  visibility: visible;}.ARROW2_LVBN_95_ONE_DOWN .arrow-up { stroke-opacity:0; fill-opacity:0; visibility: hidden;}
.ARROW1_LVBO_95_ONE_UP .arrow-up {stroke: black; fill: black; fill-opacity:1; visibility: visible;}.ARROW1_LVBO_95_ONE_UP .arrow-down { stroke-opacity:0; fill-opacity:0; visibility: hidden;}.ARROW1_LVBO_95_ONE_DOWN .arrow-down {stroke: black; fill: black; fill-opacity:1;  visibility: visible;}.ARROW1_LVBO_95_ONE_DOWN .arrow-up { stroke-opacity:0; fill-opacity:0; visibility: hidden;}.ARROW2_LVBO_95_ONE_UP .arrow-up {stroke: blue; fill: blue; fill-opacity:1; visibility: visible;}.ARROW2_LVBO_95_ONE_UP .arrow-down { stroke-opacity:0; fill-opacity:0; visibility: hidden;}.ARROW2_LVBO_95_ONE_DOWN .arrow-down {stroke: blue; fill: blue; fill-opacity:1;  visibility: visible;}.ARROW2_LVBO_95_ONE_DOWN .arrow-up { stroke-opacity:0; fill-opacity:0; visibility: hidden;}
.ARROW1_LVBM_95_ONE_UP .arrow-up {stroke: black; fill: black; fill-opacity:1; visibility: visible;}.ARROW1_LVBM_95_ONE_UP .arrow-down { stroke-opacity:0; fill-opacity:0; visibility: hidden;}.ARROW1_LVBM_95_ONE_DOWN .arrow-down {stroke: black; fill: black; fill-opacity:1;  visibility: visible;}.ARROW1_LVBM_95_ONE_DOWN .arrow-up { stroke-opacity:0; fill-opacity:0; visibility: hidden;}.ARROW2_LVBM_95_ONE_UP .arrow-up {stroke: blue; fill: blue; fill-opacity:1; visibility: visible;}.ARROW2_LVBM_95_ONE_UP .arrow-down { stroke-opacity:0; fill-opacity:0; visibility: hidden;}.ARROW2_LVBM_95_ONE_DOWN .arrow-down {stroke: blue; fill: blue; fill-opacity:1;  visibility: visible;}.ARROW2_LVBM_95_ONE_DOWN .arrow-up { stroke-opacity:0; fill-opacity:0; visibility: hidden;}
.ARROW1_EGGV_UP .arrow-up {stroke: black; fill: black; fill-opacity:1; visibility: visible;}.ARROW1_EGGV_UP .arrow-down { stroke-opacity:0; fill-opacity:0; visibility: hidden;}.ARROW1_EGGV_DOWN .arrow-down {stroke: black; fill: black; fill-opacity:1;  visibility: visible;}.ARROW1_EGGV_DOWN .arrow-up { stroke-opacity:0; fill-opacity:0; visibility: hidden;}.ARROW2_EGGV_UP .arrow-up {stroke: blue; fill: blue; fill-opacity:1; visibility: visible;}.ARROW2_EGGV_UP .arrow-down { stroke-opacity:0; fill-opacity:0; visibility: hidden;}.ARROW2_EGGV_DOWN .arrow-down {stroke: blue; fill: blue; fill-opacity:1;  visibility: visible;}.ARROW2_EGGV_DOWN .arrow-up { stroke-opacity:0; fill-opacity:0; visibility: hidden;}
.ARROW1_EGGW_UP .arrow-up {stroke: black; fill: black; fill-opacity:1; visibility: visible;}.ARROW1_EGGW_UP .arrow-down { stroke-opacity:0; fill-opacity:0; visibility: hidden;}.ARROW1_EGGW_DOWN .arrow-down {stroke: black; fill: black; fill-opacity:1;  visibility: visible;}.ARROW1_EGGW_DOWN .arrow-up { stroke-opacity:0; fill-opacity:0; visibility: hidden;}.ARROW2_EGGW_UP .arrow-up {stroke: blue; fill: blue; fill-opacity:1; visibility: visible;}.ARROW2_EGGW_UP .arrow-down { stroke-opacity:0; fill-opacity:0; visibility: hidden;}.ARROW2_EGGW_DOWN .arrow-down {stroke: blue; fill: blue; fill-opacity:1;  visibility: visible;}.ARROW2_EGGW_DOWN .arrow-up { stroke-opacity:0; fill-opacity:0; visibility: hidden;}
.ARROW1_EGGT_UP .arrow-up {stroke: black; fill: black; fill-opacity:1; visibility: visible;}.ARROW1_EGGT_UP .arrow-down { stroke-opacity:0; fill-opacity:0; visibility: hidden;}.ARROW1_EGGT_DOWN .arrow-down {stroke: black; fill: black; fill-opacity:1;  visibility: visible;}.ARROW1_EGGT_DOWN .arrow-up { stroke-opacity:0; fill-opacity:0; visibility: hidden;}.ARROW2_EGGT_UP .arrow-up {stroke: blue; fill: blue; fill-opacity:1; visibility: visible;}.ARROW2_EGGT_UP .arrow-down { stroke-opacity:0; fill-opacity:0; visibility: hidden;}.ARROW2_EGGT_DOWN .arrow-down {stroke: blue; fill: blue; fill-opacity:1;  visibility: visible;}.ARROW2_EGGT_DOWN .arrow-up { stroke-opacity:0; fill-opacity:0; visibility: hidden;}
.ARROW1_EGGX_UP .arrow-up {stroke: black; fill: black; fill-opacity:1; visibility: visible;}.ARROW1_EGGX_UP .arrow-down { stroke-opacity:0; fill-opacity:0; visibility: hidden;}.ARROW1_EGGX_DOWN .arrow-down {stroke: black; fill: black; fill-opacity:1;  visibility: visible;}.ARROW1_EGGX_DOWN .arrow-up { stroke-opacity:0; fill-opacity:0; visibility: hidden;}.ARROW2_EGGX_UP .arrow-up {stroke: blue; fill: blue; fill-opacity:1; visibility: visible;}.ARROW2_EGGX_UP .arrow-down { stroke-opacity:0; fill-opacity:0; visibility: hidden;}.ARROW2_EGGX_DOWN .arrow-down {stroke: blue; fill: blue; fill-opacity:1;  visibility: visible;}.ARROW2_EGGX_DOWN .arrow-up { stroke-opacity:0; fill-opacity:0; visibility: hidden;}
.ARROW1_EGGU_UP .arrow-up {stroke: black; fill: black; fill-opacity:1; visibility: visible;}.ARROW1_EGGU_UP .arrow-down { stroke-opacity:0; fill-opacity:0; visibility: hidden;}.ARROW1_EGGU_DOWN .arrow-down {stroke: black; fill: black; fill-opacity:1;  visibility: visible;}.ARROW1_EGGU_DOWN .arrow-up { stroke-opacity:0; fill-opacity:0; visibility: hidden;}.ARROW2_EGGU_UP .arrow-up {stroke: blue; fill: blue; fill-opacity:1; visibility: visible;}.ARROW2_EGGU_UP .arrow-down { stroke-opacity:0; fill-opacity:0; visibility: hidden;}.ARROW2_EGGU_DOWN .arrow-down {stroke: blue; fill: blue; fill-opacity:1;  visibility: visible;}.ARROW2_EGGU_DOWN .arrow-up { stroke-opacity:0; fill-opacity:0; visibility: hidden;}
.ARROW1_LVBP_95_ONE_UP .arrow-up {stroke: black; fill: black; fill-opacity:1; visibility: visible;}.ARROW1_LVBP_95_ONE_UP .arrow-down { stroke-opacity:0; fill-opacity:0; visibility: hidden;}.ARROW1_LVBP_95_ONE_DOWN .arrow-down {stroke: black; fill: black; fill-opacity:1;  visibility: visible;}.ARROW1_LVBP_95_ONE_DOWN .arrow-up { stroke-opacity:0; fill-opacity:0; visibility: hidden;}.ARROW2_LVBP_95_ONE_UP .arrow-up {stroke: blue; fill: blue; fill-opacity:1; visibility: visible;}.ARROW2_LVBP_95_ONE_UP .arrow-down { stroke-opacity:0; fill-opacity:0; visibility: hidden;}.ARROW2_LVBP_95_ONE_DOWN .arrow-down {stroke: blue; fill: blue; fill-opacity:1;  visibility: visible;}.ARROW2_LVBP_95_ONE_DOWN .arrow-up { stroke-opacity:0; fill-opacity:0; visibility: hidden;}
.idEGFJ .open { visibility: hidden;}.idEGFJ .closed { visibility: visible;}
.idEGFL .open { visibility: hidden;}.idEGFL .closed { visibility: visible;}
.idEGFN .open { visibility: hidden;}.idEGFN .closed { visibility: visible;}
.idEGFP .open { visibility: hidden;}.idEGFP .closed { visibility: visible;}
.idEGFR .open { visibility: hidden;}.idEGFR .closed { visibility: visible;}
.idEGFT .open { visibility: hidden;}.idEGFT .closed { visibility: visible;}
.idFICT_95_EGFG_95_4 {stroke-opacity:0; fill-opacity:0; visibility: hidden;}
.idEGFV .open { visibility: hidden;}.idEGFV .closed { visibility: visible;}
.idEGFX .open { visibility: hidden;}.idEGFX .closed { visibility: visible;}
.idEGFZ .open { visibility: hidden;}.idEGFZ .closed { visibility: visible;}
.idEGGB .open { visibility: hidden;}.idEGGB .closed { visibility: visible;}
.idFICT_95_EGFG_95_9 {stroke-opacity:0; fill-opacity:0; visibility: hidden;}
.idEGGD .open { visibility: hidden;}.idEGGD .closed { visibility: visible;}
.idEGGF .open { visibility: hidden;}.idEGGF .closed { visibility: visible;}
.idEGGH .open { visibility: visible;}.idEGGH .closed { visibility: hidden;}
.idEGGJ .open { visibility: hidden;}.idEGGJ .closed { visibility: visible;}
.idFICT_95_EGFG_95_14 {stroke-opacity:0; fill-opacity:0; visibility: hidden;}
.idEGGL .open { visibility: hidden;}.idEGGL .closed { visibility: visible;}
.idEGGN .open { visibility: hidden;}.idEGGN .closed { visibility: visible;}
.idEGGP .open { visibility: hidden;}.idEGGP .closed { visibility: visible;}
.idEGGR .open { visibility: hidden;}.idEGGR .closed { visibility: visible;}
.idFICT_95_EGFG_95_EGFJFictif {stroke-opacity:0; fill-opacity:0; visibility: hidden;}
.idFICT_95_EGFG_95_EGFNFictif {stroke-opacity:0; fill-opacity:0; visibility: hidden;}
.idFICT_95_EGFG_95_EGFPFictif {stroke-opacity:0; fill-opacity:0; visibility: hidden;}
.idFICT_95_EGFG_95_EGFRFictif {stroke-opacity:0; fill-opacity:0; visibility: hidden;}
.idFICT_95_EGFG_95_EGFTFictif {stroke-opacity:0; fill-opacity:0; visibility: hidden;}
.idEGFLfSwitch0 {stroke-opacity:0; fill-opacity:0; visibility: hidden;}
.idFICT_95_EGFG_95_EGFLfNode0 {stroke-opacity:0; fill-opacity:0; visibility: hidden;}
.idEGFLfSwitch1 {stroke-opacity:0; fill-opacity:0; visibility: hidden;}
.idFICT_95_EGFG_95_EGFLfNode1 {stroke-opacity:0; fill-opacity:0; visibility: hidden;}
]]></style>
    <g>
        <g class="grid" id="GRID_EGFG" transform="translate(20.0,50.0)">
            <line y2="590.0" x1="50.0" x2="50.0" y1="30.0"/>
            <line y2="590.0" x1="100.0" x2="100.0" y1="30.0"/>
            <line y2="590.0" x1="150.0" x2="150.0" y1="30.0"/>
            <line y2="590.0" x1="200.0" x2="200.0" y1="30.0"/>
            <line y2="590.0" x1="250.0" x2="250.0" y1="30.0"/>
            <line y2="590.0" x1="300.0" x2="300.0" y1="30.0"/>
            <line y2="590.0" x1="350.0" x2="350.0" y1="30.0"/>
            <line y2="590.0" x1="400.0" x2="400.0" y1="30.0"/>
            <line y2="590.0" x1="450.0" x2="450.0" y1="30.0"/>
            <line y2="590.0" x1="500.0" x2="500.0" y1="30.0"/>
            <line y2="590.0" x1="550.0" x2="550.0" y1="30.0"/>
            <line y2="280.0" x1="50.0" x2="550.0" y1="280.0"/>
            <line y2="340.0" x1="50.0" x2="550.0" y1="340.0"/>
            <line y2="270.0" x1="50.0" x2="550.0" y1="270.0"/>
            <line y2="350.0" x1="50.0" x2="550.0" y1="350.0"/>
        </g>
        <g class="BUSBAR_SECTION idEGFH" id="idEGFH" transform="translate(80.0,360.0)">
            <line y2="0" x1="0" x2="180.0" y1="0"/>
            <text x="-5.0" font-size="8" y="-5.0" transform="rotate(0,0,0)" font-family="Verdana" class="component-label" id="EGFH_NW_LABEL">EGFH</text>
        </g>
        <g class="BUSBAR_SECTION idEGFI" id="idEGFI" transform="translate(330.0,360.0)">
            <line y2="0" x1="0" x2="230.0" y1="0"/>
            <text x="-5.0" font-size="8" y="-5.0" transform="rotate(0,0,0)" font-family="Verdana" class="component-label" id="EGFI_NW_LABEL">EGFI</text>
        </g>
        <g class="LINE idLVBN_95_ONE" id="idLVBN_95_ONE" transform="translate(545.0,80.0)">
            <text x="-5.0" font-size="8" y="-5.0" transform="rotate(0,0,0)" font-family="Verdana" class="component-label" id="LVBN_ONE_N_LABEL">LVBN_ONE</text>
        </g>
        <g class="LINE idLVBO_95_ONE" id="idLVBO_95_ONE" transform="translate(495.0,80.0)">
            <text x="-5.0" font-size="8" y="-5.0" transform="rotate(0,0,0)" font-family="Verdana" class="component-label" id="LVBO_ONE_N_LABEL">LVBO_ONE</text>
        </g>
        <g class="LINE idLVBM_95_ONE" id="idLVBM_95_ONE" transform="translate(95.0,80.0)">
            <text x="-5.0" font-size="8" y="-5.0" transform="rotate(0,0,0)" font-family="Verdana" class="component-label" id="LVBM_ONE_N_LABEL">LVBM_ONE</text>
        </g>
        <g class="LOAD idEGGV" id="idEGGV" transform="translate(237.0,635.5)">
    <rect height="9" width="16"/>
    <line y2="9" x1="0" x2="16" y1="0"/>
    <line y2="9" x1="16" x2="0" y1="0"/>
<text x="-5.0" font-size="8" y="22.0" transform="rotate(0,0,0)" font-family="Verdana" class="component-label" id="EGGV_S_LABEL">EGGV</text>
        </g>
        <g class="LOAD idEGGW" id="idEGGW" transform="translate(137.0,635.5)">
    <rect height="9" width="16"/>
    <line y2="9" x1="0" x2="16" y1="0"/>
    <line y2="9" x1="16" x2="0" y1="0"/>
<text x="-5.0" font-size="8" y="22.0" transform="rotate(0,0,0)" font-family="Verdana" class="component-label" id="EGGW_S_LABEL">EGGW</text>
        </g>
        <g class="GENERATOR idEGGT" id="idEGGT" transform="translate(189.0,634.0)">
    <circle r="6" cx="6" cy="6"/>
    <path d="M6,6 A 6 20 0 0 0 0,6"/>
    <path d="M6,6 A 6 20 0 0 0 12,6"/>
<text x="-5.0" font-size="8" y="25.0" transform="rotate(0,0,0)" font-family="Verdana" class="component-label" id="EGGT_S_LABEL">EGGT</text>
        </g>
        <g class="LOAD idEGGX" id="idEGGX" transform="translate(437.0,635.5)">
    <rect height="9" width="16"/>
    <line y2="9" x1="0" x2="16" y1="0"/>
    <line y2="9" x1="16" x2="0" y1="0"/>
<text x="-5.0" font-size="8" y="22.0" transform="rotate(0,0,0)" font-family="Verdana" class="component-label" id="EGGX_S_LABEL">EGGX</text>
        </g>
        <g class="GENERATOR idEGGU" id="idEGGU" transform="translate(389.0,634.0)">
    <circle r="6" cx="6" cy="6"/>
    <path d="M6,6 A 6 20 0 0 0 0,6"/>
    <path d="M6,6 A 6 20 0 0 0 12,6"/>
<text x="-5.0" font-size="8" y="25.0" transform="rotate(0,0,0)" font-family="Verdana" class="component-label" id="EGGU_S_LABEL">EGGU</text>
        </g>
        <g class="LINE idLVBP_95_ONE" id="idLVBP_95_ONE" transform="translate(345.0,80.0)">
            <text x="-5.0" font-size="8" y="-5.0" transform="rotate(0,0,0)" font-family="Verdana" class="component-label" id="LVBP_ONE_N_LABEL">LVBP_ONE</text>
        </g>
        <g class="NODE idFICT_95_EGFG_95_4" id="idFICT_95_EGFG_95_4" transform="translate(516.0,201.0)">
    <circle fill-opacity="0" r="4" cx="4" stroke-opacity="0" cy="4"/>
</g>
        <g class="NODE idFICT_95_EGFG_95_9" id="idFICT_95_EGFG_95_9" transform="translate(191.0,511.0)">
    <circle fill-opacity="0" r="4" cx="4" stroke-opacity="0" cy="4"/>
</g>
        <g class="NODE idFICT_95_EGFG_95_14" id="idFICT_95_EGFG_95_14" transform="translate(416.0,511.0)">
    <circle fill-opacity="0" r="4" cx="4" stroke-opacity="0" cy="4"/>
</g>
        <g class="NODE idFICT_95_EGFG_95_EGFJFictif" id="idFICT_95_EGFG_95_EGFJFictif" transform="translate(91.0,326.0)">
    <circle fill-opacity="0" r="4" cx="4" stroke-opacity="0" cy="4"/>
</g>
        <g class="NODE idFICT_95_EGFG_95_EGFNFictif" id="idFICT_95_EGFG_95_EGFNFictif" transform="translate(191.0,386.0)">
    <circle fill-opacity="0" r="4" cx="4" stroke-opacity="0" cy="4"/>
</g>
        <g class="NODE idFICT_95_EGFG_95_EGFPFictif" id="idFICT_95_EGFG_95_EGFPFictif" transform="translate(341.0,326.0)">
    <circle fill-opacity="0" r="4" cx="4" stroke-opacity="0" cy="4"/>
</g>
        <g class="NODE idFICT_95_EGFG_95_EGFRFictif" id="idFICT_95_EGFG_95_EGFRFictif" transform="translate(416.0,386.0)">
    <circle fill-opacity="0" r="4" cx="4" stroke-opacity="0" cy="4"/>
</g>
        <g class="NODE idFICT_95_EGFG_95_EGFTFictif" id="idFICT_95_EGFG_95_EGFTFictif" transform="translate(516.0,326.0)">
    <circle fill-opacity="0" r="4" cx="4" stroke-opacity="0" cy="4"/>
</g>
        <g class="NODE idFICT_95_EGFG_95_EGFLfNode0" id="idFICT_95_EGFG_95_EGFLfNode0" transform="matrix(0.0,1.0,-1.0,0.0,274.0,356.0)">
    <circle fill-opacity="0" r="4" cx="4" stroke-opacity="0" cy="4"/>
</g>
        <g class="NODE idFICT_95_EGFG_95_EGFLfNode1" id="idFICT_95_EGFG_95_EGFLfNode1" transform="matrix(0.0,1.0,-1.0,0.0,324.0,356.0)">
    <circle fill-opacity="0" r="4" cx="4" stroke-opacity="0" cy="4"/>
</g>
        <polyline class="wire wire_EGFG" points="95.0,360.0,95.0,360.0" id="idEGFG_95_Wire0"/>
        <polyline class="wire wire_EGFG" points="195.0,360.0,195.0,360.0" id="idEGFG_95_Wire1"/>
        <polyline class="wire wire_EGFG" points="345.0,360.0,345.0,360.0" id="idEGFG_95_Wire2"/>
        <polyline class="wire wire_EGFG" points="420.0,360.0,420.0,360.0" id="idEGFG_95_Wire3"/>
        <polyline class="wire wire_EGFG" points="520.0,360.0,520.0,360.0" id="idEGFG_95_Wire4"/>
        <polyline class="wire wire_EGFG" points="520.0,205.0,545.0,205.0,545.0,142.5" id="idEGFG_95_Wire5"/>
        <polyline class="wire wire_EGFG" points="545.0,142.5,545.0,80.0" id="idEGFG_95_Wire6"/>
        <g class="ARROW1_LVBN_95_ONE_UP" id="idEGFG_95_Wire6_ARROW1" transform="matrix(1.0,0.0,-0.0,1.0,540.0,95.0)">
     <g class="arrow-up" id="idEGFG_95_Wire6_ARROW1_ARROW-arrow-up">
        <polygon points="5,0 10,10 0,10"/>
     </g>
     <g class="arrow-down" id="idEGFG_95_Wire6_ARROW1_ARROW-arrow-down">
        <polygon points="0,0 10,0 5,10"/>
     </g>
<text x="15.0" font-size="8" y="9.0" class="component-label" font-family="Verdana" transform="rotate(0,0,0)">0</text>
        </g>
        <g class="ARROW2_LVBN_95_ONE_DOWN" id="idEGFG_95_Wire6_ARROW2" transform="matrix(1.0,0.0,-0.0,1.0,540.0,115.0)">
     <g class="arrow-up" id="idEGFG_95_Wire6_ARROW2_ARROW-arrow-up">
        <polygon points="5,0 10,10 0,10"/>
     </g>
     <g class="arrow-down" id="idEGFG_95_Wire6_ARROW2_ARROW-arrow-down">
        <polygon points="0,0 10,0 5,10"/>
     </g>
<text x="15.0" font-size="8" y="9.0" class="component-label" font-family="Verdana" transform="rotate(0,0,0)">0</text>
        </g>
        <polyline class="wire wire_EGFG" points="520.0,257.5,520.0,205.0" id="idEGFG_95_Wire7"/>
        <polyline class="wire wire_EGFG" points="520.0,205.0,495.0,205.0,495.0,142.5" id="idEGFG_95_Wire8"/>
        <polyline class="wire wire_EGFG" points="495.0,142.5,495.0,80.0" id="idEGFG_95_Wire9"/>
        <g class="ARROW1_LVBO_95_ONE_DOWN" id="idEGFG_95_Wire9_ARROW1" transform="matrix(1.0,0.0,-0.0,1.0,490.0,95.0)">
     <g class="arrow-up" id="idEGFG_95_Wire9_ARROW1_ARROW-arrow-up">
        <polygon points="5,0 10,10 0,10"/>
     </g>
     <g class="arrow-down" id="idEGFG_95_Wire9_ARROW1_ARROW-arrow-down">
        <polygon points="0,0 10,0 5,10"/>
     </g>
<text x="15.0" font-size="8" y="9.0" class="component-label" font-family="Verdana" transform="rotate(0,0,0)">-17</text>
        </g>
        <g class="ARROW2_LVBO_95_ONE_UP" id="idEGFG_95_Wire9_ARROW2" transform="matrix(1.0,0.0,-0.0,1.0,490.0,115.0)">
     <g class="arrow-up" id="idEGFG_95_Wire9_ARROW2_ARROW-arrow-up">
        <polygon points="5,0 10,10 0,10"/>
     </g>
     <g class="arrow-down" id="idEGFG_95_Wire9_ARROW2_ARROW-arrow-down">
        <polygon points="0,0 10,0 5,10"/>
     </g>
<text x="15.0" font-size="8" y="9.0" class="component-label" font-family="Verdana" transform="rotate(0,0,0)">5</text>
        </g>
        <polyline class="wire wire_EGFG" points="95.0,195.0,95.0,80.0" id="idEGFG_95_Wire10"/>
        <g class="ARROW1_LVBM_95_ONE_DOWN" id="idEGFG_95_Wire10_ARROW1" transform="matrix(1.0,0.0,-0.0,1.0,90.0,95.0)">
     <g class="arrow-up" id="idEGFG_95_Wire10_ARROW1_ARROW-arrow-up">
        <polygon points="5,0 10,10 0,10"/>
     </g>
     <g class="arrow-down" id="idEGFG_95_Wire10_ARROW1_ARROW-arrow-down">
        <polygon points="0,0 10,0 5,10"/>
     </g>
<text x="15.0" font-size="8" y="9.0" class="component-label" font-family="Verdana" transform="rotate(0,0,0)">0</text>
        </g>
        <g class="ARROW2_LVBM_95_ONE_DOWN" id="idEGFG_95_Wire10_ARROW2" transform="matrix(1.0,0.0,-0.0,1.0,90.0,115.0)">
     <g class="arrow-up" id="idEGFG_95_Wire10_ARROW2_ARROW-arrow-up">
        <polygon points="5,0 10,10 0,10"/>
     </g>
     <g class="arrow-down" id="idEGFG_95_Wire10_ARROW2_ARROW-arrow-down">
        <polygon points="0,0 10,0 5,10"/>
     </g>
<text x="15.0" font-size="8" y="9.0" class="component-label" font-family="Verdana" transform="rotate(0,0,0)">-8</text>
        </g>
        <polyline class="wire wire_EGFG" points="195.0,462.5,195.0,515.0" id="idEGFG_95_Wire11"/>
        <polyline class="wire wire_EGFG" points="245.0,636.0,245.0,587.5" id="idEGFG_95_Wire12"/>
        <g class="ARROW1_EGGV_UP" id="idEGFG_95_Wire12_ARROW1" transform="matrix(1.0,-0.0,0.0,1.0,240.0,611.0)">
     <g class="arrow-up" id="idEGFG_95_Wire12_ARROW1_ARROW-arrow-up" transform="rotate(180.0,5.0,5.0)">
        <polygon points="5,0 10,10 0,10"/>
     </g>
     <g class="arrow-down" id="idEGFG_95_Wire12_ARROW1_ARROW-arrow-down" transform="rotate(180.0,5.0,5.0)">
        <polygon points="0,0 10,0 5,10"/>
     </g>
<text x="15.0" font-size="8" y="9.0" class="component-label" font-family="Verdana" transform="rotate(0,0,0)">11</text>
        </g>
        <g class="ARROW2_EGGV_DOWN" id="idEGFG_95_Wire12_ARROW2" transform="matrix(1.0,-0.0,0.0,1.0,240.0,591.0)">
     <g class="arrow-up" id="idEGFG_95_Wire12_ARROW2_ARROW-arrow-up" transform="rotate(180.0,5.0,5.0)">
        <polygon points="5,0 10,10 0,10"/>
     </g>
     <g class="arrow-down" id="idEGFG_95_Wire12_ARROW2_ARROW-arrow-down" transform="rotate(180.0,5.0,5.0)">
        <polygon points="0,0 10,0 5,10"/>
     </g>
<text x="15.0" font-size="8" y="9.0" class="component-label" font-family="Verdana" transform="rotate(0,0,0)">-1</text>
        </g>
        <polyline class="wire wire_EGFG" points="245.0,567.5,245.0,515.0,195.0,515.0" id="idEGFG_95_Wire13"/>
        <polyline class="wire wire_EGFG" points="145.0,636.0,145.0,587.5" id="idEGFG_95_Wire14"/>
        <g class="ARROW1_EGGW_DOWN" id="idEGFG_95_Wire14_ARROW1" transform="matrix(1.0,-0.0,0.0,1.0,140.0,611.0)">
     <g class="arrow-up" id="idEGFG_95_Wire14_ARROW1_ARROW-arrow-up" transform="rotate(180.0,5.0,5.0)">
        <polygon points="5,0 10,10 0,10"/>
     </g>
     <g class="arrow-down" id="idEGFG_95_Wire14_ARROW1_ARROW-arrow-down" transform="rotate(180.0,5.0,5.0)">
        <polygon points="0,0 10,0 5,10"/>
     </g>
<text x="15.0" font-size="8" y="9.0" class="component-label" font-family="Verdana" transform="rotate(0,0,0)">0</text>
        </g>
        <g class="ARROW2_EGGW_DOWN" id="idEGFG_95_Wire14_ARROW2" transform="matrix(1.0,-0.0,0.0,1.0,140.0,591.0)">
     <g class="arrow-up" id="idEGFG_95_Wire14_ARROW2_ARROW-arrow-up" transform="rotate(180.0,5.0,5.0)">
        <polygon points="5,0 10,10 0,10"/>
     </g>
     <g class="arrow-down" id="idEGFG_95_Wire14_ARROW2_ARROW-arrow-down" transform="rotate(180.0,5.0,5.0)">
        <polygon points="0,0 10,0 5,10"/>
     </g>
<text x="15.0" font-size="8" y="9.0" class="component-label" font-family="Verdana" transform="rotate(0,0,0)">0</text>
        </g>
        <polyline class="wire wire_EGFG" points="145.0,567.5,145.0,515.0,195.0,515.0" id="idEGFG_95_Wire15"/>
        <polyline class="wire wire_EGFG" points="195.0,634.0,195.0,587.5" id="idEGFG_95_Wire16"/>
        <g class="ARROW1_EGGT_DOWN" id="idEGFG_95_Wire16_ARROW1" transform="matrix(1.0,-0.0,0.0,1.0,190.0,609.0)">
     <g class="arrow-up" id="idEGFG_95_Wire16_ARROW1_ARROW-arrow-up" transform="rotate(180.0,5.0,5.0)">
        <polygon points="5,0 10,10 0,10"/>
     </g>
     <g class="arrow-down" id="idEGFG_95_Wire16_ARROW1_ARROW-arrow-down" transform="rotate(180.0,5.0,5.0)">
        <polygon points="0,0 10,0 5,10"/>
     </g>
<text x="15.0" font-size="8" y="9.0" class="component-label" font-family="Verdana" transform="rotate(0,0,0)">0</text>
        </g>
        <g class="ARROW2_EGGT_DOWN" id="idEGFG_95_Wire16_ARROW2" transform="matrix(1.0,-0.0,0.0,1.0,190.0,589.0)">
     <g class="arrow-up" id="idEGFG_95_Wire16_ARROW2_ARROW-arrow-up" transform="rotate(180.0,5.0,5.0)">
        <polygon points="5,0 10,10 0,10"/>
     </g>
     <g class="arrow-down" id="idEGFG_95_Wire16_ARROW2_ARROW-arrow-down" transform="rotate(180.0,5.0,5.0)">
        <polygon points="0,0 10,0 5,10"/>
     </g>
<text x="15.0" font-size="8" y="9.0" class="component-label" font-family="Verdana" transform="rotate(0,0,0)">0</text>
        </g>
        <polyline class="wire wire_EGFG" points="195.0,567.5,195.0,515.0" id="idEGFG_95_Wire17"/>
        <polyline class="wire wire_EGFG" points="420.0,462.5,420.0,515.0" id="idEGFG_95_Wire18"/>
        <polyline class="wire wire_EGFG" points="445.0,636.0,445.0,587.5" id="idEGFG_95_Wire19"/>
        <g class="ARROW1_EGGX_UP" id="idEGFG_95_Wire19_ARROW1" transform="matrix(1.0,-0.0,0.0,1.0,440.0,611.0)">
     <g class="arrow-up" id="idEGFG_95_Wire19_ARROW1_ARROW-arrow-up" transform="rotate(180.0,5.0,5.0)">
        <polygon points="5,0 10,10 0,10"/>
     </g>
     <g class="arrow-down" id="idEGFG_95_Wire19_ARROW1_ARROW-arrow-down" transform="rotate(180.0,5.0,5.0)">
        <polygon points="0,0 10,0 5,10"/>
     </g>
<text x="15.0" font-size="8" y="9.0" class="component-label" font-family="Verdana" transform="rotate(0,0,0)">11</text>
        </g>
        <g class="ARROW2_EGGX_DOWN" id="idEGFG_95_Wire19_ARROW2" transform="matrix(1.0,-0.0,0.0,1.0,440.0,591.0)">
     <g class="arrow-up" id="idEGFG_95_Wire19_ARROW2_ARROW-arrow-up" transform="rotate(180.0,5.0,5.0)">
        <polygon points="5,0 10,10 0,10"/>
     </g>
     <g class="arrow-down" id="idEGFG_95_Wire19_ARROW2_ARROW-arrow-down" transform="rotate(180.0,5.0,5.0)">
        <polygon points="0,0 10,0 5,10"/>
     </g>
<text x="15.0" font-size="8" y="9.0" class="component-label" font-family="Verdana" transform="rotate(0,0,0)">-1</text>
        </g>
        <polyline class="wire wire_EGFG" points="445.0,567.5,445.0,515.0,420.0,515.0" id="idEGFG_95_Wire20"/>
        <polyline class="wire wire_EGFG" points="395.0,634.0,395.0,587.5" id="idEGFG_95_Wire21"/>
        <g class="ARROW1_EGGU_DOWN" id="idEGFG_95_Wire21_ARROW1" transform="matrix(1.0,-0.0,0.0,1.0,390.0,609.0)">
     <g class="arrow-up" id="idEGFG_95_Wire21_ARROW1_ARROW-arrow-up" transform="rotate(180.0,5.0,5.0)">
        <polygon points="5,0 10,10 0,10"/>
     </g>
     <g class="arrow-down" id="idEGFG_95_Wire21_ARROW1_ARROW-arrow-down" transform="rotate(180.0,5.0,5.0)">
        <polygon points="0,0 10,0 5,10"/>
     </g>
<text x="15.0" font-size="8" y="9.0" class="component-label" font-family="Verdana" transform="rotate(0,0,0)">0</text>
        </g>
        <g class="ARROW2_EGGU_DOWN" id="idEGFG_95_Wire21_ARROW2" transform="matrix(1.0,-0.0,0.0,1.0,390.0,589.0)">
     <g class="arrow-up" id="idEGFG_95_Wire21_ARROW2_ARROW-arrow-up" transform="rotate(180.0,5.0,5.0)">
        <polygon points="5,0 10,10 0,10"/>
     </g>
     <g class="arrow-down" id="idEGFG_95_Wire21_ARROW2_ARROW-arrow-down" transform="rotate(180.0,5.0,5.0)">
        <polygon points="0,0 10,0 5,10"/>
     </g>
<text x="15.0" font-size="8" y="9.0" class="component-label" font-family="Verdana" transform="rotate(0,0,0)">0</text>
        </g>
        <polyline class="wire wire_EGFG" points="395.0,567.5,395.0,515.0,420.0,515.0" id="idEGFG_95_Wire22"/>
        <polyline class="wire wire_EGFG" points="345.0,195.0,345.0,80.0" id="idEGFG_95_Wire23"/>
        <g class="ARROW1_LVBP_95_ONE_DOWN" id="idEGFG_95_Wire23_ARROW1" transform="matrix(1.0,0.0,-0.0,1.0,340.0,95.0)">
     <g class="arrow-up" id="idEGFG_95_Wire23_ARROW1_ARROW-arrow-up">
        <polygon points="5,0 10,10 0,10"/>
     </g>
     <g class="arrow-down" id="idEGFG_95_Wire23_ARROW1_ARROW-arrow-down">
        <polygon points="0,0 10,0 5,10"/>
     </g>
<text x="15.0" font-size="8" y="9.0" class="component-label" font-family="Verdana" transform="rotate(0,0,0)">-5</text>
        </g>
        <g class="ARROW2_LVBP_95_ONE_UP" id="idEGFG_95_Wire23_ARROW2" transform="matrix(1.0,0.0,-0.0,1.0,340.0,115.0)">
     <g class="arrow-up" id="idEGFG_95_Wire23_ARROW2_ARROW-arrow-up">
        <polygon points="5,0 10,10 0,10"/>
     </g>
     <g class="arrow-down" id="idEGFG_95_Wire23_ARROW2_ARROW-arrow-down">
        <polygon points="0,0 10,0 5,10"/>
     </g>
<text x="15.0" font-size="8" y="9.0" class="component-label" font-family="Verdana" transform="rotate(0,0,0)">5</text>
        </g>
        <polyline class="wire wire_EGFG" points="95.0,215.0,95.0,330.0" id="idEGFG_95_Wire24"/>
        <polyline class="wire wire_EGFG" points="95.0,360.0,95.0,330.0" id="idEGFG_95_Wire25"/>
        <polyline class="wire wire_EGFG" points="195.0,442.5,195.0,390.0" id="idEGFG_95_Wire26"/>
        <polyline class="wire wire_EGFG" points="195.0,360.0,195.0,390.0" id="idEGFG_95_Wire27"/>
        <polyline class="wire wire_EGFG" points="345.0,215.0,345.0,330.0" id="idEGFG_95_Wire28"/>
        <polyline class="wire wire_EGFG" points="345.0,360.0,345.0,330.0" id="idEGFG_95_Wire29"/>
        <polyline class="wire wire_EGFG" points="420.0,442.5,420.0,390.0" id="idEGFG_95_Wire30"/>
        <polyline class="wire wire_EGFG" points="420.0,360.0,420.0,390.0" id="idEGFG_95_Wire31"/>
        <polyline class="wire wire_EGFG" points="520.0,277.5,520.0,330.0" id="idEGFG_95_Wire32"/>
        <polyline class="wire wire_EGFG" points="520.0,360.0,520.0,330.0" id="idEGFG_95_Wire33"/>
        <polyline class="wire wire_EGFG" points="260.0,360.0,270.0,360.0" id="idEGFG_95_Wire34"/>
        <polyline class="wire wire_EGFG" points="270.0,360.0,270.0,360.0" id="idEGFG_95_Wire35"/>
        <polyline class="wire wire_EGFG" points="270.0,360.0,295.0,360.0" id="idEGFG_95_Wire36"/>
        <polyline class="wire wire_EGFG" points="330.0,360.0,320.0,360.0" id="idEGFG_95_Wire37"/>
        <polyline class="wire wire_EGFG" points="320.0,360.0,320.0,360.0" id="idEGFG_95_Wire38"/>
        <polyline class="wire wire_EGFG" points="320.0,360.0,295.0,360.0" id="idEGFG_95_Wire39"/>
        <g class="DISCONNECTOR idEGFJ" id="idEGFJ" transform="translate(91.0,356.0)">
    <g class="closed" id="idEGFJ_DISCONNECTOR-closed">
        <line y2="8" x1="0" x2="8" y1="0"/>
        <line y2="8" x1="8" x2="0" y1="0"/>
    </g>
    <g class="open" id="idEGFJ_DISCONNECTOR-open">
        <line y2="8" x1="8" x2="0" y1="0"/>
    </g>
</g>
        <g class="DISCONNECTOR idEGFL" id="idEGFL" transform="translate(291.0,356.0)">
    <g class="closed" id="idEGFL_DISCONNECTOR-closed">
        <line y2="8" x1="0" x2="8" y1="0"/>
        <line y2="8" x1="8" x2="0" y1="0"/>
    </g>
    <g class="open" id="idEGFL_DISCONNECTOR-open">
        <line y2="8" x1="8" x2="0" y1="0"/>
    </g>
</g>
        <g class="DISCONNECTOR idEGFN" id="idEGFN" transform="translate(191.0,356.0)">
    <g class="closed" id="idEGFN_DISCONNECTOR-closed">
        <line y2="8" x1="0" x2="8" y1="0"/>
        <line y2="8" x1="8" x2="0" y1="0"/>
    </g>
    <g class="open" id="idEGFN_DISCONNECTOR-open">
        <line y2="8" x1="8" x2="0" y1="0"/>
    </g>
</g>
        <g class="DISCONNECTOR idEGFP" id="idEGFP" transform="translate(341.0,356.0)">
    <g class="closed" id="idEGFP_DISCONNECTOR-closed">
        <line y2="8" x1="0" x2="8" y1="0"/>
        <line y2="8" x1="8" x2="0" y1="0"/>
    </g>
    <g class="open" id="idEGFP_DISCONNECTOR-open">
        <line y2="8" x1="8" x2="0" y1="0"/>
    </g>
</g>
        <g class="DISCONNECTOR idEGFR" id="idEGFR" transform="translate(416.0,356.0)">
    <g class="closed" id="idEGFR_DISCONNECTOR-closed">
        <line y2="8" x1="0" x2="8" y1="0"/>
        <line y2="8" x1="8" x2="0" y1="0"/>
    </g>
    <g class="open" id="idEGFR_DISCONNECTOR-open">
        <line y2="8" x1="8" x2="0" y1="0"/>
    </g>
</g>
        <g class="DISCONNECTOR idEGFT" id="idEGFT" transform="translate(516.0,356.0)">
    <g class="closed" id="idEGFT_DISCONNECTOR-closed">
        <line y2="8" x1="0" x2="8" y1="0"/>
        <line y2="8" x1="8" x2="0" y1="0"/>
    </g>
    <g class="open" id="idEGFT_DISCONNECTOR-open">
        <line y2="8" x1="8" x2="0" y1="0"/>
    </g>
</g>
        <g class="DISCONNECTOR idEGFV" id="idEGFV" transform="translate(541.0,138.5)">
    <g class="closed" id="idEGFV_DISCONNECTOR-closed">
        <line y2="8" x1="0" x2="8" y1="0"/>
        <line y2="8" x1="8" x2="0" y1="0"/>
    </g>
    <g class="open" id="idEGFV_DISCONNECTOR-open">
        <line y2="8" x1="8" x2="0" y1="0"/>
    </g>
</g>
        <g class="BREAKER idEGFX" id="idEGFX" transform="translate(510.0,257.5)">
    <g class="closed" id="idEGFX_BREAKER-closed">
        <rect x="1" width="18" y="1" height="18"/>
        <line y2="15" x1="10" x2="10" y1="5"/>
    </g>
    <g class="open" id="idEGFX_BREAKER-open">
        <rect x="1" width="18" y="1" height="18"/>
        <line y2="10" x1="5" x2="15" y1="10"/>
    </g>
</g>
        <g class="DISCONNECTOR idEGFZ" id="idEGFZ" transform="translate(491.0,138.5)">
    <g class="closed" id="idEGFZ_DISCONNECTOR-closed">
        <line y2="8" x1="0" x2="8" y1="0"/>
        <line y2="8" x1="8" x2="0" y1="0"/>
    </g>
    <g class="open" id="idEGFZ_DISCONNECTOR-open">
        <line y2="8" x1="8" x2="0" y1="0"/>
    </g>
</g>
        <g class="BREAKER idEGGB" id="idEGGB" transform="translate(85.0,195.0)">
    <g class="closed" id="idEGGB_BREAKER-closed">
        <rect x="1" width="18" y="1" height="18"/>
        <line y2="15" x1="10" x2="10" y1="5"/>
    </g>
    <g class="open" id="idEGGB_BREAKER-open">
        <rect x="1" width="18" y="1" height="18"/>
        <line y2="10" x1="5" x2="15" y1="10"/>
    </g>
</g>
        <g class="BREAKER idEGGD" id="idEGGD" transform="translate(185.0,442.5)">
    <g class="closed" id="idEGGD_BREAKER-closed">
        <rect x="1" width="18" y="1" height="18"/>
        <line y2="15" x1="10" x2="10" y1="5"/>
    </g>
    <g class="open" id="idEGGD_BREAKER-open">
        <rect x="1" width="18" y="1" height="18"/>
        <line y2="10" x1="5" x2="15" y1="10"/>
    </g>
</g>
        <g class="BREAKER idEGGF" id="idEGGF" transform="translate(235.0,567.5)">
    <g class="closed" id="idEGGF_BREAKER-closed">
        <rect x="1" width="18" y="1" height="18"/>
        <line y2="15" x1="10" x2="10" y1="5"/>
    </g>
    <g class="open" id="idEGGF_BREAKER-open">
        <rect x="1" width="18" y="1" height="18"/>
        <line y2="10" x1="5" x2="15" y1="10"/>
    </g>
</g>
        <g class="BREAKER idEGGH" id="idEGGH" transform="translate(135.0,567.5)">
    <g class="closed" id="idEGGH_BREAKER-closed">
        <rect x="1" width="18" y="1" height="18"/>
        <line y2="15" x1="10" x2="10" y1="5"/>
    </g>
    <g class="open" id="idEGGH_BREAKER-open">
        <rect x="1" width="18" y="1" height="18"/>
        <line y2="10" x1="5" x2="15" y1="10"/>
    </g>
</g>
        <g class="BREAKER idEGGJ" id="idEGGJ" transform="translate(185.0,567.5)">
    <g class="closed" id="idEGGJ_BREAKER-closed">
        <rect x="1" width="18" y="1" height="18"/>
        <line y2="15" x1="10" x2="10" y1="5"/>
    </g>
    <g class="open" id="idEGGJ_BREAKER-open">
        <rect x="1" width="18" y="1" height="18"/>
        <line y2="10" x1="5" x2="15" y1="10"/>
    </g>
</g>
        <g class="BREAKER idEGGL" id="idEGGL" transform="translate(410.0,442.5)">
    <g class="closed" id="idEGGL_BREAKER-closed">
        <rect x="1" width="18" y="1" height="18"/>
        <line y2="15" x1="10" x2="10" y1="5"/>
    </g>
    <g class="open" id="idEGGL_BREAKER-open">
        <rect x="1" width="18" y="1" height="18"/>
        <line y2="10" x1="5" x2="15" y1="10"/>
    </g>
</g>
        <g class="BREAKER idEGGN" id="idEGGN" transform="translate(435.0,567.5)">
    <g class="closed" id="idEGGN_BREAKER-closed">
        <rect x="1" width="18" y="1" height="18"/>
        <line y2="15" x1="10" x2="10" y1="5"/>
    </g>
    <g class="open" id="idEGGN_BREAKER-open">
        <rect x="1" width="18" y="1" height="18"/>
        <line y2="10" x1="5" x2="15" y1="10"/>
    </g>
</g>
        <g class="BREAKER idEGGP" id="idEGGP" transform="translate(385.0,567.5)">
    <g class="closed" id="idEGGP_BREAKER-closed">
        <rect x="1" width="18" y="1" height="18"/>
        <line y2="15" x1="10" x2="10" y1="5"/>
    </g>
    <g class="open" id="idEGGP_BREAKER-open">
        <rect x="1" width="18" y="1" height="18"/>
        <line y2="10" x1="5" x2="15" y1="10"/>
    </g>
</g>
        <g class="BREAKER idEGGR" id="idEGGR" transform="translate(335.0,195.0)">
    <g class="closed" id="idEGGR_BREAKER-closed">
        <rect x="1" width="18" y="1" height="18"/>
        <line y2="15" x1="10" x2="10" y1="5"/>
    </g>
    <g class="open" id="idEGGR_BREAKER-open">
        <rect x="1" width="18" y="1" height="18"/>
        <line y2="10" x1="5" x2="15" y1="10"/>
    </g>
</g>
        <g class="NODE idEGFLfSwitch0" id="idEGFLfSwitch0" transform="translate(266.0,356.0)">
    <circle fill-opacity="0" r="4" cx="4" stroke-opacity="0" cy="4"/>
</g>
        <g class="NODE idEGFLfSwitch1" id="idEGFLfSwitch1" transform="translate(316.0,356.0)">
    <circle fill-opacity="0" r="4" cx="4" stroke-opacity="0" cy="4"/>
</g>
        <g id="LABEL_VL_EGFG">
            <text x="50.0" font-size="12" y="50.0" class="component-label" font-family="Verdana" transform="rotate(0,0,0)">EGFG</text>
        </g>
    </g>
</svg>
